<svg xmlns="http://www.w3.org/2000/svg" viewBox="0 0 1000 1000">
  <path d="M169 0 C75.665 0 0 75.665 0 169 L0 831 C0 924.335 75.665 1000 169 1000 L831 1000 C924.335 1000 1000 924.335 1000 831 L1000 169 C1000 75.665 924.335 0 831 0 Z" fill="#252b2d"/>
  <path d="M105 518 C106.973 516.045 548 74 548 74 548 74 576.834 47.202 611 72 630.578 86.21 638.474 100.917 633 133 632.325 136.958 549 383 549 383 549 383 545.55 391.827 556 391 557.227 390.903 853 391 853 391 853 391 893.528 392.767 905 425 917.211 459.311 897.282 478.17 889 487 887.527 488.571 450 926 450 926 450 926 419.188 952.996 387 928 384.431 926.005 353.705 907.932 367 863 367.581 861.036 448 620 448 620 448 620 455.04 607.693 443 608 441.924 608.027 136.933 608.382 136.933 608.382 136.933 608.382 109.985 605.064 97 583 91.625 573.866 78.535 544.227 105 518 Z" fill="#181d1f" fill-opacity="1" stroke="none"/>
  <path d="M141.062 554.481 L581.412 114.13 472.45 443.718 856.069 444.618 416.618 884.069 524.68 556.282 141.062 554.481 Z" fill="#ffc93a"/>
</svg>
