<svg xmlns="http://www.w3.org/2000/svg" viewBox="0 0 1000 1000">
  <path fill="#ffc93a" stroke="none" d="M 150 0 C 67.157997 0 0 67.15802 0 150 L 0 850 C 0 932.84198 67.157997 1000 150 1000 L 850 1000 C 932.84198 1000 1000 932.84198 1000 850 L 1000 150 C 1000 67.15802 932.84198 0 850 0 Z"/>
  <path fill="#252b2d" stroke="none" d="M 568.250061 464.306824 L 709.769104 464.306824 C 726.649841 464.306824 741.880554 474.841431 746.703674 490.579895 C 753.684387 506.445251 749.242126 524.341309 736.549805 535.51062 L 411.627228 819.817871 C 397.284973 832.256287 376.304596 833.271667 360.972321 822.102417 C 345.62735 810.933228 340.042725 790.625549 347.518494 773.237122 L 445.134888 545.537476 L 302.473572 545.537476 C 286.697052 545.537476 271.546265 535.00293 265.594849 519.264404 C 259.643433 503.399078 264.135742 485.502991 276.87323 474.33374 L 601.75769 190.049316 C 616.100037 177.562683 637.042297 176.612 652.399963 187.759644 C 667.757629 198.911072 673.342224 219.180664 665.85376 236.619873 L 568.250061 464.306824 Z"/>
</svg>
