<svg xmlns="http://www.w3.org/2000/svg" viewBox="0 0 1000 1000">
  <path fill="#ffc93a" stroke="none" d="M 150 1000 C 67.158081 1000 0 932.841919 0 850 L 0 150 C 0 67.158081 67.158081 0 150 0 L 850 0 C 932.841919 0 1000 67.158081 1000 150 L 1000 850 C 1000 932.841919 932.841919 1000 850 1000 L 150 1000 Z M 384.990234 829.855469 C 394.514343 829.809509 404.007629 826.42627 411.626953 819.818359 L 736.550781 535.509766 C 749.243103 524.340515 753.683838 506.445404 746.703125 490.580078 C 741.880005 474.841614 726.650269 464.306641 709.769531 464.306641 L 568.25 464.306641 L 665.853516 236.619141 C 673.34198 219.179932 667.758057 198.911194 652.400391 187.759766 C 637.042725 176.612122 616.100159 177.562195 601.757813 190.048828 L 276.873047 474.333984 C 264.135559 485.503235 259.644287 503.398346 265.595703 519.263672 C 271.547119 535.002075 286.696167 545.537109 302.472656 545.537109 L 445.134766 545.537109 L 347.517578 773.236328 C 340.041809 790.624756 345.627716 810.932373 360.972656 822.101563 C 368.159668 827.337158 376.586609 829.895996 384.990234 829.855469 Z"/>
</svg>
