<svg height="1000" viewBox="0 0 1000 1000" width="1000" xmlns="http://www.w3.org/2000/svg">
    <path fill="#252b2d" fill-rule="evenodd" d="m150 0c-82.842003 0-150 67.15802-150 150v700c0 82.84198 67.157997 150 150 150h700c82.84198 0 150-67.15802 150-150v-700c0-82.84198-67.15802-150-150-150z"/>
    <path fill="#ffc93a" d="m568.250061 464.306824h141.519043c16.880737 0 32.11145 10.534607 36.93457 26.273071 6.980713 15.865356 2.538452 33.761414-10.153869 44.930725l-324.922577 284.307251c-14.342255 12.438416-35.322632 13.453796-50.654907 2.284546-15.344971-11.169189-20.929596-31.476868-13.453827-48.865295l97.616394-227.699646h-142.661316c-15.77652 0-30.927307-10.534546-36.878723-26.273072-5.951416-15.865326-1.459107-33.761413 11.278381-44.930664l324.88446-284.284424c14.342347-12.486633 35.284607-13.437316 50.642273-2.289672 15.357666 11.151428 20.942261 31.42102 13.453797 48.860229z"/>
</svg>
