<svg xmlns="http://www.w3.org/2000/svg" viewBox="0 0 1000 1000">
  <path d="M50.782 520.471 C53.032 518.242 555.833 14.28 555.833 14.28 555.833 14.28 588.706 -16.271 627.657 12 649.978 28.2 658.979 44.967 652.739 81.544 651.969 86.056 556.973 366.562 556.973 366.562 556.973 366.562 553.04 376.625 564.954 375.682 566.352 375.572 903.554 375.682 903.554 375.682 903.554 375.682 949.759 377.697 962.838 414.445 976.76 453.561 954.039 475.062 944.597 485.129 942.917 486.92 444.106 985.62 444.106 985.62 444.106 985.62 408.978 1016.397 372.282 987.9 369.353 985.625 334.323 965.021 349.48 913.795 350.143 911.556 441.826 636.758 441.826 636.758 441.826 636.758 449.852 622.728 436.126 623.077 434.899 623.109 87.188 623.513 87.188 623.513 87.188 623.513 56.465 619.73 41.662 594.576 35.533 584.162 20.61 550.372 50.782 520.471 Z" fill="#181d1f"/>
  <path d="M91.895 563.062 L593.925 61.031 469.701 436.784 907.053 437.811 406.049 938.815 529.247 565.115 91.895 563.062 Z" fill="#ffc93a"/>
</svg>
